<svg id="Capa_1" enable-background="new 0 0 497 497" height="512" viewBox="0 0 497 497" width="512" xmlns="http://www.w3.org/2000/svg"><g><path d="m429.5 105.667-45-37.833 45-37.834h22.5c4.142 0 7.5 3.358 7.5 7.5v60.667c0 4.142-3.358 7.5-7.5 7.5z" fill="#28a6fa"/><path d="m369.5 30h60v75.667h-60z" fill="#24c0ff"/><path d="m429.5 211.333-45-37.833 45-37.833h22.5c4.142 0 7.5 3.358 7.5 7.5v60.667c0 4.142-3.358 7.5-7.5 7.5h-22.5z" fill="#6241ea"/><path d="m369.5 135.667h60v75.667h-60z" fill="#725fee"/><path d="m429.5 317-45-37.833 45-37.833h22.5c4.142 0 7.5 3.358 7.5 7.5v60.666c0 4.142-3.358 7.5-7.5 7.5z" fill="#ff443b"/><path d="m369.5 241.333h60v75.667h-60z" fill="#ff6333"/><path d="m399.5 7.5v399.5l-105 45v-422l75-30h22.5c4.142 0 7.5 3.358 7.5 7.5z" fill="#61ce5a"/><path d="m82.5 0c-24.85 0-45 20.15-45 45v407h332v-452z" fill="#94e368"/><path d="m339.5 317v-30l-45-30 15 60z" fill="#2db94d"/><path d="m97.5 317v-30l212-90v120z" fill="#61ce5a"/><path d="m309.5 287-90-113.5 90-113.5h30v227z" fill="#e5faff"/><path d="m97.5 60h212v227h-212z" fill="#fff"/><path d="m399.5 407h-30l-70 45 70 45h22.5c4.142 0 7.5-3.358 7.5-7.5v-22.5l-30-15 30-15z" fill="#2db94d"/><path d="m82.5 407c-24.85 0-45 20.15-45 45s20.15 45 45 45h287v-90z" fill="#61ce5a"/><path d="m369.5 437h-287c-8.284 0-15 6.716-15 15s6.716 15 15 15h287z" fill="#fff"/><path d="m399.5 437h-30c-8.284 8.284-8.284 21.716 0 30h30c-8.284-8.284-8.284-21.716 0-30z" fill="#e5faff"/><path d="m82.5 437c-8.284 0-15 6.716-15 15s6.716 15 15 15h30v-30z" fill="#6241ea"/><path d="m369.5 437h-257c-8.284 0-15 6.716-15 15s6.716 15 15 15h257c-8.284-8.284-8.284-21.716 0-30z" fill="#fff"/><path d="m218.5 90v92c25.405 0 46-20.595 46-46s-20.595-46-46-46z" fill="#6241ea"/><path d="m234.5 136c0-25.405-7.164-46-16-46-25.405 0-46 20.595-46 46s20.595 46 46 46c8.836 0 16-20.595 16-46z" fill="#725fee"/><path d="m264.5 212h-30l45 45h30c0-24.85-20.15-45-45-45z" fill="#6241ea"/><path d="m279.5 257h-152c0-24.85 20.15-45 45-45h62c12.42 0 23.68 5.04 31.82 13.18s13.18 19.4 13.18 31.82z" fill="#725fee"/></g></svg>